<svg id="图层_1" data-name="图层 1" xmlns="http://www.w3.org/2000/svg" xmlns:xlink="http://www.w3.org/1999/xlink" viewBox="0 0 175.56 183.19"><defs><style>.cls-1{fill:none;}.cls-2{isolation:isolate;}.cls-3{clip-path:url(#clip-path);}.cls-4{fill:#851c16;}.cls-5{clip-path:url(#clip-path-2);}.cls-6{fill:#801b15;}.cls-7{clip-path:url(#clip-path-3);}.cls-8{fill:#f53428;}.cls-9{clip-path:url(#clip-path-4);}.cls-10{fill:#854300;}.cls-11{clip-path:url(#clip-path-5);}.cls-12{fill:#804000;}.cls-13{clip-path:url(#clip-path-6);}.cls-14{fill:#ed7700;}.cls-15{clip-path:url(#clip-path-7);}.cls-16{fill:#85790b;}.cls-17{clip-path:url(#clip-path-8);}.cls-18{fill:#80740b;}.cls-19{clip-path:url(#clip-path-9);}.cls-20{fill:#f7e115;}.cls-21{clip-path:url(#clip-path-10);}.cls-22{fill:#1a6685;}.cls-23{clip-path:url(#clip-path-11);}.cls-24{fill:#196380;}.cls-25{clip-path:url(#clip-path-12);}.cls-26{fill:#2db0e4;}.cls-27{clip-path:url(#clip-path-13);}.cls-28{fill:#478512;}.cls-29{clip-path:url(#clip-path-14);}.cls-30{fill:#448012;}.cls-31{clip-path:url(#clip-path-15);}.cls-32{fill:#83f622;}.cls-33{clip-path:url(#clip-path-16);}.cls-34{fill:#460071;}.cls-35{clip-path:url(#clip-path-17);}.cls-36{fill:#44006d;}.cls-37{clip-path:url(#clip-path-18);}.cls-38{fill:#8000cf;}.cls-39{clip-path:url(#clip-path-19);}.cls-40{fill:#008585;}.cls-41{clip-path:url(#clip-path-20);}.cls-42{fill:teal;}.cls-43{clip-path:url(#clip-path-21);}.cls-44{fill:#00f3f3;}.cls-45{clip-path:url(#clip-path-22);}.cls-46{fill:#131d8a;}.cls-47{fill:#121c85;}.cls-48{clip-path:url(#clip-path-23);}.cls-49{fill:#121b80;}.cls-50{clip-path:url(#clip-path-24);}.cls-51{fill:#2133ef;}</style><clipPath id="clip-path" transform="translate(-12.04 -7)"><path class="cls-1" d="M30.54,59l3.24,2.17a8,8,0,0,1,3.57,6.66l-3.24-2.17A8,8,0,0,0,30.54,59Z"/></clipPath><clipPath id="clip-path-2" transform="translate(-12.04 -7)"><path class="cls-1" d="M18.85,131.87l-3.24-2.16A7.89,7.89,0,0,0,20,131l3.25,2.17A7.88,7.88,0,0,1,18.85,131.87Z"/></clipPath><clipPath id="clip-path-3" transform="translate(-12.04 -7)"><path class="cls-1" d="M34,123.05l3.25,2.16a8,8,0,0,1-8,8L26,131A8,8,0,0,0,34,123.05Z"/></clipPath><clipPath id="clip-path-4" transform="translate(-12.04 -7)"><path class="cls-1" d="M68.14,19.29l3.19,2.13a8,8,0,0,1,3.57,6.66L71.71,26A8,8,0,0,0,68.14,19.29Z"/></clipPath><clipPath id="clip-path-5" transform="translate(-12.04 -7)"><path class="cls-1" d="M56.39,89.33,53.21,87.2a7.85,7.85,0,0,0,4.4,1.34l3.19,2.12A7.93,7.93,0,0,1,56.39,89.33Z"/></clipPath><clipPath id="clip-path-6" transform="translate(-12.04 -7)"><path class="cls-1" d="M71.61,80.54l3.19,2.13a8,8,0,0,1-8,8l-3.18-2.12A8,8,0,0,0,71.61,80.54Z"/></clipPath><clipPath id="clip-path-7" transform="translate(-12.04 -7)"><path class="cls-1" d="M105.78,8.34l3.08,2.05a8,8,0,0,1,3.57,6.66L109.35,15A8,8,0,0,0,105.78,8.34Z"/></clipPath><clipPath id="clip-path-8" transform="translate(-12.04 -7)"><path class="cls-1" d="M93.91,89.51l-3.07-2.05a7.82,7.82,0,0,0,4.39,1.34l3.08,2A7.83,7.83,0,0,1,93.91,89.51Z"/></clipPath><clipPath id="clip-path-9" transform="translate(-12.04 -7)"><path class="cls-1" d="M109.23,80.8l3.08,2a8,8,0,0,1-8,8l-3.07-2A8,8,0,0,0,109.23,80.8Z"/></clipPath><clipPath id="clip-path-10" transform="translate(-12.04 -7)"><path class="cls-1" d="M143.19,107.63l3.41,2.28a7.94,7.94,0,0,1,3.57,6.65l-3.41-2.28A8,8,0,0,0,143.19,107.63Z"/></clipPath><clipPath id="clip-path-11" transform="translate(-12.04 -7)"><path class="cls-1" d="M131.66,188.58l-3.42-2.28a7.94,7.94,0,0,0,4.41,1.34l3.41,2.28A7.93,7.93,0,0,1,131.66,188.58Z"/></clipPath><clipPath id="clip-path-12" transform="translate(-12.04 -7)"><path class="cls-1" d="M146.64,179.64l3.41,2.28a8,8,0,0,1-8,8l-3.42-2.28A8,8,0,0,0,146.64,179.64Z"/></clipPath><clipPath id="clip-path-13" transform="translate(-12.04 -7)"><path class="cls-1" d="M143.39,28.16l3,2a8,8,0,0,1,3.56,6.66l-3-2A8,8,0,0,0,143.39,28.16Z"/></clipPath><clipPath id="clip-path-14" transform="translate(-12.04 -7)"><path class="cls-1" d="M131.45,89.26l-3-2a7.85,7.85,0,0,0,4.4,1.34l3,2A8,8,0,0,1,131.45,89.26Z"/></clipPath><clipPath id="clip-path-15" transform="translate(-12.04 -7)"><path class="cls-1" d="M146.87,80.61l3,2a8,8,0,0,1-8,8l-3-2A8,8,0,0,0,146.87,80.61Z"/></clipPath><clipPath id="clip-path-16" transform="translate(-12.04 -7)"><path class="cls-1" d="M68.26,107.77l3,2a8,8,0,0,1,3.57,6.65l-3-2A8,8,0,0,0,68.26,107.77Z"/></clipPath><clipPath id="clip-path-17" transform="translate(-12.04 -7)"><path class="cls-1" d="M56.29,188.43l-3-2a7.92,7.92,0,0,0,4.4,1.33l3,2A7.85,7.85,0,0,1,56.29,188.43Z"/></clipPath><clipPath id="clip-path-18" transform="translate(-12.04 -7)"><path class="cls-1" d="M71.71,179.79l3,2a8,8,0,0,1-8,8l-3-2A8,8,0,0,0,71.71,179.79Z"/></clipPath><clipPath id="clip-path-19" transform="translate(-12.04 -7)"><path class="cls-1" d="M180.9,80.08,184,82.17a8,8,0,0,1,3.57,6.66l-3.13-2.09A8,8,0,0,0,180.9,80.08Z"/></clipPath><clipPath id="clip-path-20" transform="translate(-12.04 -7)"><path class="cls-1" d="M169.1,147.68,166,145.59a7.86,7.86,0,0,0,4.41,1.34l3.13,2.09A7.86,7.86,0,0,1,169.1,147.68Z"/></clipPath><clipPath id="clip-path-21" transform="translate(-12.04 -7)"><path class="cls-1" d="M184.38,138.94,187.5,141a8,8,0,0,1-8,8l-3.13-2.09A8,8,0,0,0,184.38,138.94Z"/></clipPath><clipPath id="clip-path-22" transform="translate(-12.04 -7)"><path class="cls-1" d="M105.81,127.76l3,2a8,8,0,0,1,3.57,6.66l-3-2A8,8,0,0,0,105.81,127.76Z"/></clipPath><clipPath id="clip-path-23" transform="translate(-12.04 -7)"><path class="cls-1" d="M93.88,188.85l-3-2a8,8,0,0,0,4.41,1.33l3,2A7.86,7.86,0,0,1,93.88,188.85Z"/></clipPath><clipPath id="clip-path-24" transform="translate(-12.04 -7)"><path class="cls-1" d="M109.3,180.21l3,2a8,8,0,0,1-8,8l-3-2A8,8,0,0,0,109.3,180.21Z"/></clipPath></defs><g class="cls-2"><g class="cls-2"><g class="cls-3"><g class="cls-2"><path class="cls-4" d="M30.54,59l3.24,2.17a8,8,0,0,1,3.57,6.66l-3.24-2.17A8,8,0,0,0,30.54,59" transform="translate(-12.04 -7)"/></g></g></g><g class="cls-2"><g class="cls-5"><g class="cls-2"><path class="cls-4" d="M20,131l3.25,2.17a7.88,7.88,0,0,1-4.4-1.34l-3.24-2.16A7.89,7.89,0,0,0,20,131" transform="translate(-12.04 -7)"/></g></g></g><polygon class="cls-6" points="13.96 124.04 17.21 126.21 11.21 126.21 7.97 124.04 13.96 124.04"/><polygon class="cls-6" points="22.07 58.65 25.32 60.82 25.21 118.21 21.97 116.05 22.07 58.65"/><g class="cls-2"><g class="cls-7"><g class="cls-2"><path class="cls-4" d="M34,123.05l3.25,2.16a8,8,0,0,1-8,8L26,131a8,8,0,0,0,8-8" transform="translate(-12.04 -7)"/></g></g></g><path class="cls-8" d="M26.13,57.66a8,8,0,0,1,8,8L34,123.05a8,8,0,0,1-8,8H20a8,8,0,0,1-8-8l.1-57.4a8,8,0,0,1,8-8Z" transform="translate(-12.04 -7)"/></g><g class="cls-2"><g class="cls-2"><g class="cls-9"><g class="cls-2"><path class="cls-10" d="M68.14,19.29l3.19,2.13a8,8,0,0,1,3.57,6.66L71.71,26a8,8,0,0,0-3.57-6.66" transform="translate(-12.04 -7)"/></g></g></g><g class="cls-2"><g class="cls-11"><g class="cls-2"><path class="cls-10" d="M57.61,88.54l3.19,2.12a7.93,7.93,0,0,1-4.41-1.33L53.21,87.2a7.85,7.85,0,0,0,4.4,1.34" transform="translate(-12.04 -7)"/></g></g></g><polygon class="cls-12" points="51.57 81.54 54.75 83.66 48.76 83.66 45.58 81.54 51.57 81.54"/><polygon class="cls-12" points="59.67 18.95 62.86 21.08 62.76 75.67 59.58 73.54 59.67 18.95"/><g class="cls-2"><g class="cls-13"><g class="cls-2"><path class="cls-10" d="M71.61,80.54l3.19,2.13a8,8,0,0,1-8,8l-3.18-2.12a8,8,0,0,0,8-8" transform="translate(-12.04 -7)"/></g></g></g><path class="cls-14" d="M63.74,18a8,8,0,0,1,8,8l-.1,54.59a8,8,0,0,1-8,8h-6a8,8,0,0,1-8-8L49.74,26a8,8,0,0,1,8-8Z" transform="translate(-12.04 -7)"/></g><g class="cls-2"><g class="cls-2"><g class="cls-15"><g class="cls-2"><path class="cls-16" d="M105.78,8.34l3.08,2.05a8,8,0,0,1,3.57,6.66L109.35,15a8,8,0,0,0-3.57-6.66" transform="translate(-12.04 -7)"/></g></g></g><g class="cls-2"><g class="cls-17"><g class="cls-2"><path class="cls-16" d="M95.23,88.8l3.08,2a7.83,7.83,0,0,1-4.4-1.34l-3.07-2.05a7.82,7.82,0,0,0,4.39,1.34" transform="translate(-12.04 -7)"/></g></g></g><polygon class="cls-18" points="89.19 81.8 92.26 83.85 86.27 83.85 83.19 81.8 89.19 81.8"/><polygon class="cls-18" points="97.31 8 100.39 10.05 100.27 75.85 97.19 73.8 97.31 8"/><g class="cls-2"><g class="cls-19"><g class="cls-2"><path class="cls-16" d="M109.23,80.8l3.08,2a8,8,0,0,1-8,8l-3.07-2a8,8,0,0,0,8-8" transform="translate(-12.04 -7)"/></g></g></g><path class="cls-20" d="M101.38,7a8,8,0,0,1,8,8l-.12,65.8a8,8,0,0,1-8,8h-6a8,8,0,0,1-8-8L87.39,15a8,8,0,0,1,8-8Z" transform="translate(-12.04 -7)"/></g><g class="cls-2"><g class="cls-2"><g class="cls-21"><g class="cls-2"><path class="cls-22" d="M143.19,107.63l3.41,2.28a7.94,7.94,0,0,1,3.57,6.65l-3.41-2.28a8,8,0,0,0-3.57-6.65" transform="translate(-12.04 -7)"/></g></g></g><g class="cls-2"><g class="cls-23"><g class="cls-2"><path class="cls-22" d="M132.65,187.64l3.41,2.28a7.93,7.93,0,0,1-4.4-1.34l-3.42-2.28a7.94,7.94,0,0,0,4.41,1.34" transform="translate(-12.04 -7)"/></g></g></g><polygon class="cls-24" points="126.59 180.64 130.01 182.92 124.02 182.92 120.61 180.64 126.59 180.64"/><polygon class="cls-24" points="134.72 107.28 138.13 109.56 138.01 174.92 134.6 172.64 134.72 107.28"/><g class="cls-2"><g class="cls-25"><g class="cls-2"><path class="cls-22" d="M146.64,179.64l3.41,2.28a8,8,0,0,1-8,8l-3.42-2.28a8,8,0,0,0,8-8" transform="translate(-12.04 -7)"/></g></g></g><path class="cls-26" d="M138.78,106.29a8,8,0,0,1,8,8l-.12,65.36a8,8,0,0,1-8,8h-6a8,8,0,0,1-8-8l.12-65.36a8,8,0,0,1,8-8Z" transform="translate(-12.04 -7)"/></g><g class="cls-2"><g class="cls-2"><g class="cls-27"><g class="cls-2"><path class="cls-28" d="M143.39,28.16l3,2a8,8,0,0,1,3.56,6.66l-3-2a8,8,0,0,0-3.57-6.66" transform="translate(-12.04 -7)"/></g></g></g><g class="cls-2"><g class="cls-29"><g class="cls-2"><path class="cls-28" d="M132.88,88.61l3,2a8,8,0,0,1-4.41-1.34l-3-2a7.85,7.85,0,0,0,4.4,1.34" transform="translate(-12.04 -7)"/></g></g></g><polygon class="cls-30" points="126.83 81.61 129.81 83.6 123.82 83.6 120.84 81.61 126.83 81.61"/><polygon class="cls-30" points="134.92 27.82 137.9 29.81 137.81 75.6 134.84 73.61 134.92 27.82"/><g class="cls-2"><g class="cls-31"><g class="cls-2"><path class="cls-28" d="M146.87,80.61l3,2a8,8,0,0,1-8,8l-3-2a8,8,0,0,0,8-8" transform="translate(-12.04 -7)"/></g></g></g><path class="cls-32" d="M139,26.83a8,8,0,0,1,8,8l-.09,45.79a8,8,0,0,1-8,8h-6a8,8,0,0,1-8-8L125,34.82a8,8,0,0,1,8-8Z" transform="translate(-12.04 -7)"/></g><g class="cls-2"><g class="cls-2"><g class="cls-33"><g class="cls-2"><path class="cls-34" d="M68.26,107.77l3,2a8,8,0,0,1,3.57,6.65l-3-2a8,8,0,0,0-3.56-6.65" transform="translate(-12.04 -7)"/></g></g></g><g class="cls-2"><g class="cls-35"><g class="cls-2"><path class="cls-34" d="M57.71,187.78l3,2a7.85,7.85,0,0,1-4.4-1.34l-3-2a7.92,7.92,0,0,0,4.4,1.33" transform="translate(-12.04 -7)"/></g></g></g><polygon class="cls-36" points="51.67 180.78 54.65 182.77 48.66 182.77 45.68 180.78 51.67 180.78"/><polygon class="cls-36" points="59.79 107.42 62.77 109.41 62.65 174.77 59.67 172.79 59.79 107.42"/><g class="cls-2"><g class="cls-37"><g class="cls-2"><path class="cls-34" d="M71.71,179.79l3,2a8,8,0,0,1-8,8l-3-2a8,8,0,0,0,8-8" transform="translate(-12.04 -7)"/></g></g></g><path class="cls-38" d="M63.86,106.44a8,8,0,0,1,8,8l-.11,65.37a8,8,0,0,1-8,8h-6a8,8,0,0,1-8-8l.12-65.37a8,8,0,0,1,8-8Z" transform="translate(-12.04 -7)"/></g><g class="cls-2"><g class="cls-2"><g class="cls-39"><g class="cls-2"><path class="cls-40" d="M180.9,80.08,184,82.17a8,8,0,0,1,3.57,6.66l-3.13-2.09a8,8,0,0,0-3.57-6.66" transform="translate(-12.04 -7)"/></g></g></g><g class="cls-2"><g class="cls-41"><g class="cls-2"><path class="cls-40" d="M170.38,146.93l3.13,2.09a7.86,7.86,0,0,1-4.41-1.34L166,145.59a7.86,7.86,0,0,0,4.41,1.34" transform="translate(-12.04 -7)"/></g></g></g><polygon class="cls-42" points="164.33 139.93 167.46 142.02 161.47 142.02 158.34 139.93 164.33 139.93"/><polygon class="cls-42" points="172.43 79.74 175.56 81.83 175.47 134.03 172.34 131.94 172.43 79.74"/><g class="cls-2"><g class="cls-43"><g class="cls-2"><path class="cls-40" d="M184.38,138.94,187.5,141a8,8,0,0,1-8,8l-3.13-2.09a8,8,0,0,0,8-8" transform="translate(-12.04 -7)"/></g></g></g><path class="cls-44" d="M176.5,78.74a8,8,0,0,1,8,8l-.09,52.2a8,8,0,0,1-8,8h-6a8,8,0,0,1-8-8l.1-52.2a8,8,0,0,1,8-8Z" transform="translate(-12.04 -7)"/></g><g class="cls-2"><g class="cls-2"><g class="cls-45"><g class="cls-2"><path class="cls-46" d="M105.81,127.76l3,2a8.44,8.44,0,0,1,.74.56l-3-2a8.12,8.12,0,0,0-.75-.56" transform="translate(-12.04 -7)"/><path class="cls-47" d="M106.56,128.32l3,2a8,8,0,0,1,2.83,6.1l-3-2a8,8,0,0,0-2.82-6.1" transform="translate(-12.04 -7)"/></g></g></g><g class="cls-2"><g class="cls-48"><g class="cls-2"><path class="cls-47" d="M95.31,188.2l3,2a7.86,7.86,0,0,1-4.41-1.34l-3-2a8,8,0,0,0,4.41,1.33" transform="translate(-12.04 -7)"/></g></g></g><polygon class="cls-49" points="89.26 181.2 92.23 183.19 86.25 183.19 83.27 181.2 89.26 181.2"/><polygon class="cls-49" points="97.34 127.42 100.32 129.4 100.24 175.19 97.26 173.21 97.34 127.42"/><g class="cls-2"><g class="cls-50"><g class="cls-2"><path class="cls-47" d="M109.3,180.21l3,2a8,8,0,0,1-8,8l-3-2a8,8,0,0,0,8-8" transform="translate(-12.04 -7)"/></g></g></g><path class="cls-51" d="M101.41,126.42a8,8,0,0,1,8,8l-.08,45.79a8,8,0,0,1-8,8h-6a8,8,0,0,1-8-8l.09-45.79a8,8,0,0,1,8-8Z" transform="translate(-12.04 -7)"/></g></svg>